<mxfile host="www.draw.io" modified="2019-11-08T06:28:26.222Z" agent="Mozilla/5.0 (Macintosh; Intel Mac OS X 10_14_2) AppleWebKit/537.36 (KHTML, like Gecko) Chrome/78.0.3904.70 Safari/537.36" etag="mWdMm8ov2y0VTNwEnZe_" version="12.2.2" type="github" pages="1">
  <diagram id="7bEGNqy72aapdDmoEI14" name="Page-1">
    <mxGraphModel dx="1758" dy="2097" grid="1" gridSize="10" guides="1" tooltips="1" connect="1" arrows="1" fold="1" page="1" pageScale="1" pageWidth="827" pageHeight="1169" math="0" shadow="0">
      <root>
        <mxCell id="0"/>
        <mxCell id="1" parent="0"/>
        <mxCell id="GX6JNvNvB-EfQKt3TV8f-48" value="" style="rounded=0;whiteSpace=wrap;html=1;" parent="1" vertex="1">
          <mxGeometry x="-30" y="-161" width="1190" height="680" as="geometry"/>
        </mxCell>
        <mxCell id="GX6JNvNvB-EfQKt3TV8f-4" style="edgeStyle=orthogonalEdgeStyle;rounded=0;orthogonalLoop=1;jettySize=auto;html=1;" parent="1" source="GX6JNvNvB-EfQKt3TV8f-1" target="GX6JNvNvB-EfQKt3TV8f-3" edge="1">
          <mxGeometry relative="1" as="geometry"/>
        </mxCell>
        <mxCell id="GX6JNvNvB-EfQKt3TV8f-1" value="営業" style="shape=umlActor;verticalLabelPosition=bottom;labelBackgroundColor=#ffffff;verticalAlign=top;html=1;outlineConnect=0;" parent="1" vertex="1">
          <mxGeometry x="20" y="20" width="30" height="60" as="geometry"/>
        </mxCell>
        <mxCell id="GX6JNvNvB-EfQKt3TV8f-3" value="" style="shape=image;verticalLabelPosition=bottom;labelBackgroundColor=#ffffff;verticalAlign=top;aspect=fixed;imageAspect=0;image=https://amitica.net/wp-content/uploads/2019/03/google-apps-script.png;" parent="1" vertex="1">
          <mxGeometry x="160" y="7.5" width="85" height="85" as="geometry"/>
        </mxCell>
        <mxCell id="GX6JNvNvB-EfQKt3TV8f-5" value="ドメイン登録" style="text;html=1;resizable=0;points=[];autosize=1;align=left;verticalAlign=top;spacingTop=-4;" parent="1" vertex="1">
          <mxGeometry x="70" y="30" width="90" height="20" as="geometry"/>
        </mxCell>
        <mxCell id="GX6JNvNvB-EfQKt3TV8f-6" value="GAS" style="text;html=1;resizable=0;points=[];autosize=1;align=left;verticalAlign=top;spacingTop=-4;" parent="1" vertex="1">
          <mxGeometry x="160" y="90" width="40" height="20" as="geometry"/>
        </mxCell>
        <mxCell id="GX6JNvNvB-EfQKt3TV8f-23" value="" style="edgeStyle=orthogonalEdgeStyle;rounded=0;orthogonalLoop=1;jettySize=auto;html=1;" parent="1" source="GX6JNvNvB-EfQKt3TV8f-9" edge="1">
          <mxGeometry relative="1" as="geometry">
            <mxPoint x="360" y="50" as="targetPoint"/>
          </mxGeometry>
        </mxCell>
        <mxCell id="GX6JNvNvB-EfQKt3TV8f-9" value="" style="html=1;aspect=fixed;strokeColor=none;shadow=0;align=center;verticalAlign=top;fillColor=#3B8DF1;shape=mxgraph.gcp2.clock" parent="1" vertex="1">
          <mxGeometry x="240" y="12.5" width="75" height="75" as="geometry"/>
        </mxCell>
        <mxCell id="GX6JNvNvB-EfQKt3TV8f-10" value="GAS&lt;br&gt;Trigger" style="text;html=1;resizable=0;points=[];autosize=1;align=left;verticalAlign=top;spacingTop=-4;" parent="1" vertex="1">
          <mxGeometry x="260" y="87.5" width="50" height="30" as="geometry"/>
        </mxCell>
        <mxCell id="GX6JNvNvB-EfQKt3TV8f-35" style="edgeStyle=orthogonalEdgeStyle;rounded=0;orthogonalLoop=1;jettySize=auto;html=1;entryX=0;entryY=0.5;entryDx=0;entryDy=0;" parent="1" source="GX6JNvNvB-EfQKt3TV8f-19" target="GX6JNvNvB-EfQKt3TV8f-29" edge="1">
          <mxGeometry relative="1" as="geometry"/>
        </mxCell>
        <mxCell id="GX6JNvNvB-EfQKt3TV8f-36" style="edgeStyle=orthogonalEdgeStyle;rounded=0;orthogonalLoop=1;jettySize=auto;html=1;entryX=0;entryY=0.5;entryDx=0;entryDy=0;" parent="1" source="GX6JNvNvB-EfQKt3TV8f-19" target="GX6JNvNvB-EfQKt3TV8f-33" edge="1">
          <mxGeometry relative="1" as="geometry"/>
        </mxCell>
        <mxCell id="GX6JNvNvB-EfQKt3TV8f-37" style="edgeStyle=orthogonalEdgeStyle;rounded=0;orthogonalLoop=1;jettySize=auto;html=1;entryX=0;entryY=0.5;entryDx=0;entryDy=0;" parent="1" source="GX6JNvNvB-EfQKt3TV8f-19" target="GX6JNvNvB-EfQKt3TV8f-31" edge="1">
          <mxGeometry relative="1" as="geometry"/>
        </mxCell>
        <mxCell id="GX6JNvNvB-EfQKt3TV8f-19" value="" style="shape=mxgraph.gcp2.doubleRect;strokeColor=#dddddd;fillColor=#ffffff;shadow=1;strokeWidth=1;" parent="1" vertex="1">
          <mxGeometry x="570" y="16" width="158" height="68" as="geometry"/>
        </mxCell>
        <mxCell id="GX6JNvNvB-EfQKt3TV8f-20" value="&lt;font color=&quot;#000000&quot;&gt;Cloud Pub/Sub&lt;/font&gt;" style="dashed=0;connectable=0;html=1;fillColor=#5184F3;strokeColor=none;shape=mxgraph.gcp2.hexIcon;prIcon=cloud_pubsub;part=1;labelPosition=right;verticalLabelPosition=middle;align=left;verticalAlign=middle;spacingLeft=5;fontColor=#999999;fontSize=12;" parent="GX6JNvNvB-EfQKt3TV8f-19" vertex="1">
          <mxGeometry y="0.5" width="44" height="39" relative="1" as="geometry">
            <mxPoint x="5" y="-19.5" as="offset"/>
          </mxGeometry>
        </mxCell>
        <mxCell id="GX6JNvNvB-EfQKt3TV8f-24" value="" style="edgeStyle=orthogonalEdgeStyle;rounded=0;orthogonalLoop=1;jettySize=auto;html=1;" parent="1" target="GX6JNvNvB-EfQKt3TV8f-19" edge="1">
          <mxGeometry relative="1" as="geometry">
            <mxPoint x="520" y="50" as="sourcePoint"/>
          </mxGeometry>
        </mxCell>
        <mxCell id="GX6JNvNvB-EfQKt3TV8f-27" value="" style="strokeColor=#dddddd;fillColor=#ffffff;shadow=1;strokeWidth=1;rounded=1;absoluteArcSize=1;arcSize=2;" parent="1" vertex="1">
          <mxGeometry x="360" y="20" width="160" height="60" as="geometry"/>
        </mxCell>
        <mxCell id="GX6JNvNvB-EfQKt3TV8f-28" value="&lt;font color=&quot;#000000&quot;&gt;クロールすべき&lt;br&gt;ドメインを選定&lt;/font&gt;&lt;br&gt;Compute Engine" style="dashed=0;connectable=0;html=1;fillColor=#5184F3;strokeColor=none;shape=mxgraph.gcp2.hexIcon;prIcon=compute_engine;part=1;labelPosition=right;verticalLabelPosition=middle;align=left;verticalAlign=middle;spacingLeft=5;fontColor=#999999;fontSize=12;" parent="GX6JNvNvB-EfQKt3TV8f-27" vertex="1">
          <mxGeometry y="0.5" width="44" height="39" relative="1" as="geometry">
            <mxPoint x="5" y="-19.5" as="offset"/>
          </mxGeometry>
        </mxCell>
        <mxCell id="GX6JNvNvB-EfQKt3TV8f-39" style="edgeStyle=orthogonalEdgeStyle;rounded=0;orthogonalLoop=1;jettySize=auto;html=1;entryX=0.175;entryY=0.5;entryDx=0;entryDy=0;entryPerimeter=0;" parent="1" source="GX6JNvNvB-EfQKt3TV8f-29" target="GX6JNvNvB-EfQKt3TV8f-38" edge="1">
          <mxGeometry relative="1" as="geometry">
            <Array as="points">
              <mxPoint x="1040" y="-60"/>
              <mxPoint x="1040" y="50"/>
            </Array>
          </mxGeometry>
        </mxCell>
        <mxCell id="GX6JNvNvB-EfQKt3TV8f-29" value="" style="strokeColor=#dddddd;fillColor=#ffffff;shadow=1;strokeWidth=1;rounded=1;absoluteArcSize=1;arcSize=2;" parent="1" vertex="1">
          <mxGeometry x="810" y="-90" width="160" height="60" as="geometry"/>
        </mxCell>
        <mxCell id="GX6JNvNvB-EfQKt3TV8f-30" value="&lt;font color=&quot;#000000&quot;&gt;クローラー&lt;/font&gt;&lt;br&gt;Compute Engine" style="dashed=0;connectable=0;html=1;fillColor=#5184F3;strokeColor=none;shape=mxgraph.gcp2.hexIcon;prIcon=compute_engine;part=1;labelPosition=right;verticalLabelPosition=middle;align=left;verticalAlign=middle;spacingLeft=5;fontColor=#999999;fontSize=12;" parent="GX6JNvNvB-EfQKt3TV8f-29" vertex="1">
          <mxGeometry y="0.5" width="44" height="39" relative="1" as="geometry">
            <mxPoint x="5" y="-19.5" as="offset"/>
          </mxGeometry>
        </mxCell>
        <mxCell id="GX6JNvNvB-EfQKt3TV8f-43" style="edgeStyle=orthogonalEdgeStyle;rounded=0;orthogonalLoop=1;jettySize=auto;html=1;entryX=0.175;entryY=0.5;entryDx=0;entryDy=0;entryPerimeter=0;" parent="1" source="GX6JNvNvB-EfQKt3TV8f-31" target="GX6JNvNvB-EfQKt3TV8f-38" edge="1">
          <mxGeometry relative="1" as="geometry"/>
        </mxCell>
        <mxCell id="GX6JNvNvB-EfQKt3TV8f-31" value="" style="strokeColor=#dddddd;fillColor=#ffffff;shadow=1;strokeWidth=1;rounded=1;absoluteArcSize=1;arcSize=2;" parent="1" vertex="1">
          <mxGeometry x="810" y="20" width="160" height="60" as="geometry"/>
        </mxCell>
        <mxCell id="GX6JNvNvB-EfQKt3TV8f-32" value="&lt;font color=&quot;#000000&quot;&gt;クローラー&lt;/font&gt;&lt;br&gt;Compute Engine" style="dashed=0;connectable=0;html=1;fillColor=#5184F3;strokeColor=none;shape=mxgraph.gcp2.hexIcon;prIcon=compute_engine;part=1;labelPosition=right;verticalLabelPosition=middle;align=left;verticalAlign=middle;spacingLeft=5;fontColor=#999999;fontSize=12;" parent="GX6JNvNvB-EfQKt3TV8f-31" vertex="1">
          <mxGeometry y="0.5" width="44" height="39" relative="1" as="geometry">
            <mxPoint x="5" y="-19.5" as="offset"/>
          </mxGeometry>
        </mxCell>
        <mxCell id="GX6JNvNvB-EfQKt3TV8f-44" style="edgeStyle=orthogonalEdgeStyle;rounded=0;orthogonalLoop=1;jettySize=auto;html=1;entryX=0.175;entryY=0.5;entryDx=0;entryDy=0;entryPerimeter=0;" parent="1" source="GX6JNvNvB-EfQKt3TV8f-33" target="GX6JNvNvB-EfQKt3TV8f-38" edge="1">
          <mxGeometry relative="1" as="geometry">
            <Array as="points">
              <mxPoint x="1040" y="160"/>
              <mxPoint x="1040" y="50"/>
            </Array>
          </mxGeometry>
        </mxCell>
        <mxCell id="GX6JNvNvB-EfQKt3TV8f-56" value="" style="edgeStyle=orthogonalEdgeStyle;rounded=0;orthogonalLoop=1;jettySize=auto;html=1;" parent="1" source="GX6JNvNvB-EfQKt3TV8f-33" target="GX6JNvNvB-EfQKt3TV8f-54" edge="1">
          <mxGeometry relative="1" as="geometry"/>
        </mxCell>
        <mxCell id="GX6JNvNvB-EfQKt3TV8f-58" style="edgeStyle=orthogonalEdgeStyle;orthogonalLoop=1;jettySize=auto;html=1;rounded=1;" parent="1" source="GX6JNvNvB-EfQKt3TV8f-33" target="GX6JNvNvB-EfQKt3TV8f-3" edge="1">
          <mxGeometry relative="1" as="geometry">
            <Array as="points">
              <mxPoint x="890" y="250"/>
              <mxPoint x="203" y="250"/>
            </Array>
          </mxGeometry>
        </mxCell>
        <mxCell id="GX6JNvNvB-EfQKt3TV8f-33" value="" style="strokeColor=#dddddd;fillColor=#ffffff;shadow=1;strokeWidth=1;rounded=1;absoluteArcSize=1;arcSize=2;" parent="1" vertex="1">
          <mxGeometry x="810" y="130" width="160" height="60" as="geometry"/>
        </mxCell>
        <mxCell id="GX6JNvNvB-EfQKt3TV8f-34" value="&lt;font color=&quot;#000000&quot;&gt;クローラー&lt;/font&gt;&lt;br&gt;Compute Engine" style="dashed=0;connectable=0;html=1;fillColor=#5184F3;strokeColor=none;shape=mxgraph.gcp2.hexIcon;prIcon=compute_engine;part=1;labelPosition=right;verticalLabelPosition=middle;align=left;verticalAlign=middle;spacingLeft=5;fontColor=#999999;fontSize=12;" parent="GX6JNvNvB-EfQKt3TV8f-33" vertex="1">
          <mxGeometry y="0.5" width="44" height="39" relative="1" as="geometry">
            <mxPoint x="5" y="-19.5" as="offset"/>
          </mxGeometry>
        </mxCell>
        <mxCell id="GX6JNvNvB-EfQKt3TV8f-54" value="" style="strokeColor=#dddddd;fillColor=#ffffff;shadow=1;strokeWidth=1;rounded=1;absoluteArcSize=1;arcSize=2;" parent="1" vertex="1">
          <mxGeometry x="810" y="300" width="160" height="60" as="geometry"/>
        </mxCell>
        <mxCell id="GX6JNvNvB-EfQKt3TV8f-55" value="&lt;font color=&quot;#000000&quot;&gt;クローラー&lt;/font&gt;&lt;br&gt;Compute Engine" style="dashed=0;connectable=0;html=1;fillColor=#5184F3;strokeColor=none;shape=mxgraph.gcp2.hexIcon;prIcon=compute_engine;part=1;labelPosition=right;verticalLabelPosition=middle;align=left;verticalAlign=middle;spacingLeft=5;fontColor=#999999;fontSize=12;" parent="GX6JNvNvB-EfQKt3TV8f-54" vertex="1">
          <mxGeometry y="0.5" width="44" height="39" relative="1" as="geometry">
            <mxPoint x="5" y="-19.5" as="offset"/>
          </mxGeometry>
        </mxCell>
        <mxCell id="GX6JNvNvB-EfQKt3TV8f-46" value="" style="edgeStyle=orthogonalEdgeStyle;rounded=0;orthogonalLoop=1;jettySize=auto;html=1;exitX=0.825;exitY=0.5;exitDx=0;exitDy=0;exitPerimeter=0;" parent="1" source="GX6JNvNvB-EfQKt3TV8f-38" target="GX6JNvNvB-EfQKt3TV8f-45" edge="1">
          <mxGeometry relative="1" as="geometry">
            <Array as="points"/>
          </mxGeometry>
        </mxCell>
        <mxCell id="GX6JNvNvB-EfQKt3TV8f-38" value="Cloud NAT" style="html=1;fillColor=#5184F3;strokeColor=none;verticalAlign=top;labelPosition=center;verticalLabelPosition=bottom;align=center;spacingTop=-6;fontSize=11;fontStyle=1;fontColor=#999999;shape=mxgraph.gcp2.hexIcon;prIcon=cloud_nat" parent="1" vertex="1">
          <mxGeometry x="1100" width="110" height="100" as="geometry"/>
        </mxCell>
        <mxCell id="GX6JNvNvB-EfQKt3TV8f-45" value="" style="shape=image;html=1;verticalAlign=top;verticalLabelPosition=bottom;labelBackgroundColor=#ffffff;imageAspect=0;aspect=fixed;image=https://cdn2.iconfinder.com/data/icons/circle-icons-1/64/browser-128.png" parent="1" vertex="1">
          <mxGeometry x="1280" y="8" width="84" height="84" as="geometry"/>
        </mxCell>
        <mxCell id="GX6JNvNvB-EfQKt3TV8f-47" value="ウェブサイト" style="text;html=1;resizable=0;points=[];autosize=1;align=left;verticalAlign=top;spacingTop=-4;" parent="1" vertex="1">
          <mxGeometry x="1280" y="92.5" width="90" height="20" as="geometry"/>
        </mxCell>
        <mxCell id="GX6JNvNvB-EfQKt3TV8f-49" value="VCP" style="html=1;fillColor=#5184F3;strokeColor=none;verticalAlign=top;labelPosition=center;verticalLabelPosition=bottom;align=center;spacingTop=-6;fontSize=11;fontStyle=1;fontColor=#999999;shape=mxgraph.gcp2.hexIcon;prIcon=virtual_private_cloud" parent="1" vertex="1">
          <mxGeometry x="-20" y="-150" width="66" height="58.5" as="geometry"/>
        </mxCell>
        <mxCell id="GX6JNvNvB-EfQKt3TV8f-53" value="毎日 朝6時" style="text;html=1;resizable=0;points=[];autosize=1;align=left;verticalAlign=top;spacingTop=-4;" parent="1" vertex="1">
          <mxGeometry x="245" y="-12" width="70" height="20" as="geometry"/>
        </mxCell>
        <mxCell id="GX6JNvNvB-EfQKt3TV8f-57" value="クロール時にASPがあれば保存" style="text;html=1;resizable=0;points=[];autosize=1;align=left;verticalAlign=top;spacingTop=-4;" parent="1" vertex="1">
          <mxGeometry x="900" y="235" width="180" height="20" as="geometry"/>
        </mxCell>
        <mxCell id="GX6JNvNvB-EfQKt3TV8f-59" value="クロール対象の数により、優先度を更新する" style="text;html=1;resizable=0;points=[];autosize=1;align=left;verticalAlign=top;spacingTop=-4;" parent="1" vertex="1">
          <mxGeometry x="380" y="215" width="260" height="20" as="geometry"/>
        </mxCell>
      </root>
    </mxGraphModel>
  </diagram>
</mxfile>
